<svg xmlns="http://www.w3.org/2000/svg" viewBox="0 0 50.96 52.75">
    <defs>
        <style>
            .cls-1{fill:#ebebeb}
        </style>
    </defs>
    <title>
        Asset 1
    </title>
    <g id="Layer_2" data-name="Layer 2">
        <g id="Layer_1-2" data-name="Layer 1">
            <path d="M5.8 37.55l-.61-1.08A2.24 2.24 0 0 1 3 37.8c-1.22 0-2.78-1.05-2.78-3.63V19.69a3.36 3.36 0 0 1 3.16-3.64c1.72 0 3 1.5 3 3.64v3.7H4.62v-4.08A1.24 1.24 0 0 0 3.37 18a1.22 1.22 0 0 0-1.24 1.31v15.24c0 .89.38 1.47 1.24 1.47s1.24-.57 1.24-1.47v-5.64H3.5v-1.73h3v10.37zM8.55 37.55V16.31h5.16v1.82h-3.25v7.58h2.36v1.82h-2.36v8.2h3.25v1.82H8.55zM19.92 19.31A1.24 1.24 0 0 0 18.67 18a1.22 1.22 0 0 0-1.24 1.31v15.24a1.2 1.2 0 0 0 1.24 1.31 1.22 1.22 0 0 0 1.24-1.31V19.31zM18.67 37.8a3.34 3.34 0 0 1-3.16-3.64V19.69a3.36 3.36 0 0 1 3.16-3.64 3.36 3.36 0 0 1 3.16 3.64v14.48a3.34 3.34 0 0 1-3.16 3.64zM28 19.46c0-.86-.38-1.21-.93-1.21h-1.22v8h1.08c.64 0 1.09-.54 1.09-1.4v-5.39zm1.69 18.24c-1.12 0-1.59-.41-1.59-2v-6.16c0-.86-.45-1.4-1.12-1.4h-1.13v9.41h-1.94V16.31h3.22c1.24 0 2.81.64 2.81 3.35v4.94c0 1.28-.32 2.23-1.31 2.68A2.6 2.6 0 0 1 30 29.93v5.77c0 .57.06.83.41.83v1.18zM37.62 37.55L37 36.46a2.24 2.24 0 0 1-2.2 1.34c-1.2 0-2.8-1.05-2.8-3.63V19.69a3.36 3.36 0 0 1 3.16-3.64c1.72 0 3 1.5 3 3.64v3.7h-1.72v-4.08A1.24 1.24 0 0 0 35.19 18 1.22 1.22 0 0 0 34 19.31v15.24c0 .89.38 1.47 1.24 1.47s1.24-.57 1.24-1.47v-5.64h-1.16v-1.73h3v10.37zM40.37 37.55V16.31h1.94v21.24h-1.94zM47.51 21.51l-1 9.85h1.75l-.77-9.85zm1.24 16l-.32-4.3h-2.1l-.45 4.3h-1.75l2.39-21.24h2l2.23 21.24zM7.69 45.11a3.11 3.11 0 0 0-3.26-3 2.94 2.94 0 0 0-3.07 3 3 3 0 0 0 3.07 3 3.13 3.13 0 0 0 3.26-3zm-7 6.59a.61.61 0 0 1-.34-.55.63.63 0 0 1 .6-.58.54.54 0 0 1 .29.09 5.61 5.61 0 0 0 3.14 1 2.92 2.92 0 0 0 3.23-3.16v-1a4.21 4.21 0 0 1-3.48 1.87A4.1 4.1 0 0 1 0 45.13a4.12 4.12 0 0 1 4.17-4.19 4.16 4.16 0 0 1 3.47 1.79v-1a.66.66 0 0 1 .65-.73.67.67 0 0 1 .67.67v6.75a4.28 4.28 0 0 1-1.13 3.14 4.67 4.67 0 0 1-3.38 1.19 7 7 0 0 1-3.71-1zM11.77 41.68a.67.67 0 0 1 .65-.67.66.66 0 0 1 .67.67v1.67A3.68 3.68 0 0 1 16.14 41a.64.64 0 0 1 .65.67.66.66 0 0 1-.58.67c-1.72.21-3.13 1.49-3.13 4.05v3a.66.66 0 1 1-1.32 0v-7.71zM25.48 45.58a3.36 3.36 0 0 0-3.3-3.47 3.28 3.28 0 0 0-3.24 3.43A3.33 3.33 0 0 0 22.21 49a3.28 3.28 0 0 0 3.26-3.42zm-7.9 0a4.63 4.63 0 0 1 9.25 0 4.61 4.61 0 0 1-4.65 4.64 4.55 4.55 0 0 1-4.6-4.6zM30.82 49.51L28.13 42a1.24 1.24 0 0 1-.09-.36.65.65 0 0 1 .67-.64.69.69 0 0 1 .67.55l2.23 6.66 2.25-6.68a.68.68 0 0 1 .65-.53h.07a.7.7 0 0 1 .69.53l2.23 6.68 2.27-6.7a.65.65 0 0 1 .63-.51.64.64 0 0 1 .65.62A1.23 1.23 0 0 1 41 42l-2.71 7.52a.78.78 0 0 1-.72.6h-.05a.74.74 0 0 1-.72-.6L34.55 43l-2.23 6.47a.74.74 0 0 1-.72.6.79.79 0 0 1-.74-.6zM43 41.68a.67.67 0 0 1 .65-.67.66.66 0 0 1 .67.67v1a3.36 3.36 0 0 1 3-1.73 3.24 3.24 0 0 1 3.4 3.55v4.93a.66.66 0 1 1-1.32 0v-4.6a2.37 2.37 0 0 0-2.4-2.72 2.61 2.61 0 0 0-2.66 2.78v4.5a.65.65 0 0 1-.65.67.66.66 0 0 1-.67-.67v-7.71zM40.92 3.78a7.62 7.62 0 0 0 .36 9.39 50.2 50.2 0 0 1 1.49-5.49 13.33 13.33 0 0 1 4.08-6s-3.43 3.37-4.11 12.56c5.68 1 7.06-3.52 6.13-7.9C48.32 3.73 51 0 51 0s-7-.51-10 3.76z" class="cls-1"/>
            <path d="M33.74 5.31a10.38 10.38 0 0 1 4.39 3.55l.18.25a8 8 0 0 1 .36-3.55C35.44 3 30.3 5 30.3 5s2.8 2.18 3 4.28c.29 3.48 2.32 6.54 6.35 4.53-2.57-6.71-5.88-8.46-5.88-8.46z" class="cls-1"/>
        </g>
    </g>
</svg>
