<svg xmlns="http://www.w3.org/2000/svg" viewBox="0 0 101 100">
    <defs>
        <style>
            .cls-1{fill:#ebebeb;opacity:.2}
        </style>
    </defs>
    <title>
        Asset 6
    </title>
    <g id="Layer_2" data-name="Layer 2">
        <path id="Layer_1-2" d="M84.53 0h-68C7.57 0 0 7.12 0 16.06v68C0 93 7.57 100 16.51 100h68c8.96 0 16.49-7 16.49-15.92v-68A16.32 16.32 0 0 0 84.53 0zM32 80H17V35h15zm-7.86-52.25c-5 0-9.06-3.56-9.06-8s4.06-8 9.06-8 9.07 3.56 9.07 8-4.06 8-9.07 8zM88 80H73V58.23c0-8.51-3.14-11.37-7.27-11.37C59.48 46.86 56 51.29 56 61v19H41V35h14v8h.28c3-6 9.06-9.26 16-9.26 12 0 16.73 8.78 16.73 18.16z" class="cls-1" data-name="Layer 1"/>
    </g>
</svg>
