<svg xmlns="http://www.w3.org/2000/svg" viewBox="0 0 100 100">
    <defs>
        <style>
            .cls-1{fill:#ebebeb;opacity:.2}
        </style>
    </defs>
    <title>
        Asset 5
    </title>
    <g id="Layer_2" data-name="Layer 2">
        <path id="Layer_1-2" d="M84.13 0h-68A16 16 0 0 0 0 16.06v68A15.89 15.89 0 0 0 16.11 100h68A15.7 15.7 0 0 0 100 84.08v-68A15.81 15.81 0 0 0 84.13 0zm-3.2 37v1.85c0 18.87-14.36 40.62-40.62 40.62A40.42 40.42 0 0 1 18.47 73a29.23 29.23 0 0 0 3.4.2 28.65 28.65 0 0 0 17.73-6.08 14.3 14.3 0 0 1-13.34-9.91 14.27 14.27 0 0 0 2.69.25 13.27 13.27 0 0 0 3.63-.5A14.4 14.4 0 0 1 21 43v-.18a15 15 0 0 0 6.6 1.79 14.27 14.27 0 0 1-4.32-19.06 40.56 40.56 0 0 0 29.44 14.87 14.29 14.29 0 0 1 24.34-13 28.6 28.6 0 0 0 9.07-3.46 14.29 14.29 0 0 1-6.28 7.89 28.36 28.36 0 0 0 8.2-2.24A29 29 0 0 1 80.93 37z" class="cls-1" data-name="Layer 1"/>
    </g>
</svg>
