<svg xmlns="http://www.w3.org/2000/svg" style="display:none;">
	<symbol id="arrow" viewBox="0 0 11.8 18.9">
    	<path id="Layer_1" d="M3 18.4L1.6 17l7.2-7.2-7.3-8.2L3 .3l7.9 8.9c.4.4.3 1 0 1.4L3 18.4z"/>
    </symbol>
    <symbol id="airplane" viewBox="0 0 143.5 123">
    	<path id="Layer_1-2" d="M.07 123L143.5 61.5.07 0 0 47.83 102.5 61.5 0 75.17z" class="cls-1" data-name="Layer 1"/>
    </symbol>

    <symbol id="facebook" viewBox="0 0 101 100">
    	<path id="Layer_1-2" d="M84.32 0h-68A16.17 16.17 0 0 0 0 16.06v68A16.05 16.05 0 0 0 16.29 100h68c8.96 0 16.71-7 16.71-15.92v-68C101 7.12 93.25 0 84.32 0zM84 27h-5.44c-3 0-6.56 3.09-6.56 7.87V38h12v13H72v41H54V51H43V38h11v-5.07C54 28.45 55.83 14 72.58 14H84z" class="cls-1" data-name="Layer 1"/>
    </symbol>

    <symbol id="twitter" viewBox="0 0 100 100">
    	<path id="Layer_1-2" d="M84.13 0h-68A16 16 0 0 0 0 16.06v68A15.89 15.89 0 0 0 16.11 100h68A15.7 15.7 0 0 0 100 84.08v-68A15.81 15.81 0 0 0 84.13 0zm-3.2 37v1.85c0 18.87-14.36 40.62-40.62 40.62A40.42 40.42 0 0 1 18.47 73a29.23 29.23 0 0 0 3.4.2 28.65 28.65 0 0 0 17.73-6.08 14.3 14.3 0 0 1-13.34-9.91 14.27 14.27 0 0 0 2.69.25 13.27 13.27 0 0 0 3.63-.5A14.4 14.4 0 0 1 21 43v-.18a15 15 0 0 0 6.6 1.79 14.27 14.27 0 0 1-4.32-19.06 40.56 40.56 0 0 0 29.44 14.87 14.29 14.29 0 0 1 24.34-13 28.6 28.6 0 0 0 9.07-3.46 14.29 14.29 0 0 1-6.28 7.89 28.36 28.36 0 0 0 8.2-2.24A29 29 0 0 1 80.93 37z" class="cls-1" data-name="Layer 1"/>
    </symbol>

    <symbol id="linkedin" viewBox="0 0 101 100">
    	<path id="Layer_1-2" d="M84.53 0h-68C7.57 0 0 7.12 0 16.06v68C0 93 7.57 100 16.51 100h68c8.96 0 16.49-7 16.49-15.92v-68A16.32 16.32 0 0 0 84.53 0zM32 80H17V35h15zm-7.86-52.25c-5 0-9.06-3.56-9.06-8s4.06-8 9.06-8 9.07 3.56 9.07 8-4.06 8-9.07 8zM88 80H73V58.23c0-8.51-3.14-11.37-7.27-11.37C59.48 46.86 56 51.29 56 61v19H41V35h14v8h.28c3-6 9.06-9.26 16-9.26 12 0 16.73 8.78 16.73 18.16z" class="cls-1" data-name="Layer 1"/>
    </symbol>

    <symbol id="fontis-logo" viewBox="0 0 121.74 55.2">
    	 <path d="M.14 46.3H1.4L2.65 50l1.24-3.7h1.27v8.79H4v-6L2.66 53l-1.34-3.9v6H.14zM6.92 50.88v-.38c0-3 .93-4.32 2.26-4.32s2.26 1.36 2.26 4.32v.38c0 3-.93 4.31-2.26 4.31s-2.26-1.35-2.26-4.31zm3.26 0v-.38c0-2.27-.41-3.19-1-3.19s-1 .92-1 3.19v.38c0 2.27.41 3.19 1 3.19s1-.92 1-3.19zM13.17 52.61V46.3h1.23v6.43c0 .92.35 1.33.87 1.33s.88-.41.88-1.33V46.3h1.22v6.31c0 1.73-.86 2.58-2.1 2.58s-2.1-.84-2.1-2.58zM19.27 46.3h1.18l1.91 5.32V46.3h1.2v8.79h-1.12l-2-5.53v5.53h-1.2zM26.34 47.47h-1.2V46.3h3.6v1.17h-1.17v7.62h-1.23zM31.23 46.27h1.32l1.74 8.81h-1.24l-.35-2H31l-.35 2h-1.2zM32.51 52l-.64-3.53-.64 3.53zM35.88 46.3h1.23v8.79h-1.23zM39.09 46.3h1.18l1.91 5.32V46.3h1.2v8.79h-1.11l-2-5.53v5.53h-1.2zM50.45 54.77v-1.3a2.82 2.82 0 0 0 1.43.52.85.85 0 0 0 .93-.91c0-.5-.16-.86-1-1.83-1.08-1.29-1.47-1.84-1.47-2.84a2 2 0 0 1 2-2.15 2.72 2.72 0 0 1 1.36.31v1.31a2.27 2.27 0 0 0-1.22-.43.86.86 0 0 0-.9.89c0 .49.16.75 1 1.71 1.17 1.38 1.47 2 1.47 3A2 2 0 0 1 52 55.17a3.32 3.32 0 0 1-1.55-.4zM55.65 46.3h1.28a2.57 2.57 0 0 1 2.75 2.9 2.65 2.65 0 0 1-2.64 3h-.15v2.9h-1.24zm1.41 4.7c.83 0 1.38-.62 1.38-1.78 0-1.22-.53-1.8-1.36-1.8h-.19V51zM61.29 46.3h1.43a2.46 2.46 0 0 1 2.66 2.7v.09a2.57 2.57 0 0 1-1.18 2.35l1.33 3.62H64.2L63 51.87h-.49v3.2h-1.22zm1.46 4.47c.83 0 1.39-.5 1.39-1.63v-.07c0-1.21-.6-1.61-1.43-1.61h-.18v3.31zM67.15 46.3h1.23v8.79h-1.23zM70.36 46.3h1.18l1.91 5.32V46.3h1.2v8.79h-1.11l-2-5.53v5.53h-1.18zM76.41 50.83v-.28c0-2.86 1.22-4.32 2.85-4.32a2.54 2.54 0 0 1 1.14.25v1.31a2.11 2.11 0 0 0-1.1-.38c-.94 0-1.63 1-1.63 3.09v.38c0 2.37.75 3.14 1.54 3.14a.8.8 0 0 0 .29-.02v-2.64h-.93v-1.11h2.06v4.55a3.29 3.29 0 0 1-1.47.37c-1.5-.01-2.75-1.33-2.75-4.34zM87.46 46.3h1.28l.8 6.08 1-6.08h1.14l1 6.08.82-6.08h1.24l-1.38 8.83H92l-.94-5.95-.94 5.95h-1.27zM97.33 46.27h1.32l1.74 8.81h-1.24l-.35-2h-1.66l-.35 2h-1.21zM98.61 52L98 48.48 97.33 52zM102.32 47.47h-1.19V46.3h3.6v1.17h-1.18v7.62h-1.23zM106.33 46.3h3.25v1.17h-2v2.61h1.79v1.17h-1.79v2.67h2v1.17h-3.29zM111.32 46.3h1.43a2.46 2.46 0 0 1 2.66 2.7v.09a2.56 2.56 0 0 1-1.18 2.35l1.33 3.62h-1.33l-1.18-3.21h-.49v3.2h-1.24zm1.46 4.47c.83 0 1.39-.5 1.39-1.63v-.07c0-1.21-.6-1.61-1.43-1.61h-.18v3.31z" class="cls-1"/>
        <path d="M13.84 19.68c.65-2 3.61-3.81 5.32-5.23 1.89-1.58 3.78-3.16 5.73-4.69 2.19-1.63 5.5-5.34 9-4 1.42.55 2.25 1.85 3.55 2.56A14.77 14.77 0 0 0 41.27 10c1.36.38 3.66 1 5.08.71 1.83-.38 3.9-2.56 5.26-3.54 1.83-1.42 2.25-2.94 3.67-4.47A12.87 12.87 0 0 1 59.41.28c3.9-1.42 5.62 2.89 7.27 4.85 1.06 1.25 2 1.42 3.67 1.47a3.69 3.69 0 0 0 2.54-.54c.54-.33.95-1.09 1.6-1.36C77.5 3.5 81.11 7 83 8.56a64.11 64.11 0 0 0 10.94 7.14c1.12.6 2.25 1.2 3.37 1.75 2.66 1.36 5.85 1.52 8.63 2.67a15.13 15.13 0 0 1 3.43 2.07c-1.36 0-2.13-.87-3.31-1.14-1.77-.44-3.72-.65-5.56-1.14-1.42-.38-2.84-.27-4.26-.6a12.24 12.24 0 0 1-3.66-2c-2.37-1.69-4.61-3.81-7.09-5.45-2-1.31-6.15-3.38-8.57-2.4-3.61 1.54-1.07 4.54-.42 6.89-1.71-1.2-5.2-5.23-7.63-5.12a1 1 0 0 0-.71-1 7.93 7.93 0 0 0 .36 3.32c-.71-1-1.89-1.69-2.54-2.72s-1.18-1.91-1.83-2.89-1.06-3.21-2.54-3.6c-2.54-.6-2.19 3.54-3.84 3.87-.12-1-.47-2-.59-3.05a24.82 24.82 0 0 0-2.3 3.16c-.77 1-2.13 2.29-2.48 3.43a2.79 2.79 0 0 1-.47-1.63c-1.36 1.25-2.78 3.16-4.91 3.49-2.78.44-3.61-1-5.56-2-1.54-.71-3.31-1.09-4.91-1.75C34 8.83 32.28 8 29 8.34a3.55 3.55 0 0 1-.65 1.8c.12.05.35 0 .47.05l-.12.33c.42 0 .71.22 1.13.16a1.25 1.25 0 0 1 0 .65c-3.49.87-5.26 2.67-8.16 4.36 1.48 0 2.54-.76 3.9-1-1.18 2.29-5.26 2.07-7.39 3.27-1.24.71-2.25 1.63-3.67 2.34a40.87 40.87 0 0 1-4.49 2c.47-.65 1.77-1 2.54-1.69A20.62 20.62 0 0 0 15 18.1z" class="cls-2"/>
        <path d="M37.19 27.14a13 13 0 0 0-8.45-2.67 12.81 12.81 0 0 0-8.39 2.67 7.56 7.56 0 0 0 0 12.42 13 13 0 0 0 8.39 2.61 13 13 0 0 0 8.4-2.61 7.72 7.72 0 0 0 3.25-6.21 7.82 7.82 0 0 0-3.2-6.21zm-3.78 10a7.05 7.05 0 0 1-4.67 1.47 7.16 7.16 0 0 1-4.67-1.47 5 5 0 0 1 0-7.68 7.43 7.43 0 0 1 4.67-1.42 7.32 7.32 0 0 1 4.67 1.42 5 5 0 0 1 0 7.68zM0 41.96h5.03v-7.08h8.98v-3.16H5.03v-3.87h8.98v-3.1H0v17.21zM59.59 35.26L48.71 24.75H44.1v17.21h5.09V30.9l11.23 11.06h4.2V24.75h-5.03v10.51zM114.39 34.17a6.67 6.67 0 0 0-2.39-1.74c-.89-.38-2.07-.82-3.6-1.31a8.5 8.5 0 0 1-2.82-1.12 1.12 1.12 0 0 1-.58-1 1.14 1.14 0 0 1 .77-1 5.16 5.16 0 0 1 2.18-.38 19.19 19.19 0 0 1 6.51 1.53v-3.32a20.6 20.6 0 0 0-6.92-1.36 10.25 10.25 0 0 0-5.67 1.42 3.93 3.93 0 0 0-2.13 3.49 4 4 0 0 0 1 2.83A6.19 6.19 0 0 0 103 33.9a21.78 21.78 0 0 0 3.61 1.31 11.05 11.05 0 0 1 2.9 1.2 1.28 1.28 0 0 1 .59 1c0 1-1 1.58-3 1.58a9.91 9.91 0 0 1-3.37-.54 18.29 18.29 0 0 1-3.66-1.69v3.76a17.74 17.74 0 0 0 7.39 1.63 9.81 9.81 0 0 0 5.68-1.42 4.31 4.31 0 0 0 2.19-3.81 4 4 0 0 0-.94-2.75zM90.86 24.74h5.03v17.22h-5.03zM67.75 27.85h7.39v14.11h5.02V27.85h7.39v-3.1h-19.8v3.1zM119.68 24.72a2.11 2.11 0 0 1 1 .27 1.9 1.9 0 0 1 .77.78 2.13 2.13 0 0 1 0 2.09 2 2 0 0 1-.77.78 2.06 2.06 0 0 1-2.06 0 2 2 0 0 1-.77-.78 2.15 2.15 0 0 1-.27-1 2.12 2.12 0 0 1 .28-1.05 1.91 1.91 0 0 1 .77-.78 2.08 2.08 0 0 1 1-.27m0 .35a1.75 1.75 0 0 0-.85.23 1.6 1.6 0 0 0-.64.65 1.76 1.76 0 0 0 0 1.74 1.64 1.64 0 0 0 .64.65 1.7 1.7 0 0 0 1.71 0 1.61 1.61 0 0 0 .64-.65 1.77 1.77 0 0 0 0-1.74 1.59 1.59 0 0 0-.64-.65 1.75 1.75 0 0 0-.85-.23m-.87 2.89v-2.28h.76a1.82 1.82 0 0 1 .57.06.56.56 0 0 1 .28.22.6.6 0 0 1 .1.33.62.62 0 0 1-.17.43.7.7 0 0 1-.47.21.62.62 0 0 1 .19.12 2.5 2.5 0 0 1 .33.45l.27.44h-.44l-.2-.35a1.85 1.85 0 0 0-.37-.53.46.46 0 0 0-.29-.08h-.21v1zm.36-1.27h.44a.68.68 0 0 0 .42-.09.31.31 0 0 0 .11-.25.3.3 0 0 0-.05-.18.32.32 0 0 0-.15-.12 1.05 1.05 0 0 0-.36 0h-.41z" class="cls-1"/>
    </symbol>

    <symbol id="georgia-grown" viewBox="0 0 50.96 52.75">
    	<path d="M5.8 37.55l-.61-1.08A2.24 2.24 0 0 1 3 37.8c-1.22 0-2.78-1.05-2.78-3.63V19.69a3.36 3.36 0 0 1 3.16-3.64c1.72 0 3 1.5 3 3.64v3.7H4.62v-4.08A1.24 1.24 0 0 0 3.37 18a1.22 1.22 0 0 0-1.24 1.31v15.24c0 .89.38 1.47 1.24 1.47s1.24-.57 1.24-1.47v-5.64H3.5v-1.73h3v10.37zM8.55 37.55V16.31h5.16v1.82h-3.25v7.58h2.36v1.82h-2.36v8.2h3.25v1.82H8.55zM19.92 19.31A1.24 1.24 0 0 0 18.67 18a1.22 1.22 0 0 0-1.24 1.31v15.24a1.2 1.2 0 0 0 1.24 1.31 1.22 1.22 0 0 0 1.24-1.31V19.31zM18.67 37.8a3.34 3.34 0 0 1-3.16-3.64V19.69a3.36 3.36 0 0 1 3.16-3.64 3.36 3.36 0 0 1 3.16 3.64v14.48a3.34 3.34 0 0 1-3.16 3.64zM28 19.46c0-.86-.38-1.21-.93-1.21h-1.22v8h1.08c.64 0 1.09-.54 1.09-1.4v-5.39zm1.69 18.24c-1.12 0-1.59-.41-1.59-2v-6.16c0-.86-.45-1.4-1.12-1.4h-1.13v9.41h-1.94V16.31h3.22c1.24 0 2.81.64 2.81 3.35v4.94c0 1.28-.32 2.23-1.31 2.68A2.6 2.6 0 0 1 30 29.93v5.77c0 .57.06.83.41.83v1.18zM37.62 37.55L37 36.46a2.24 2.24 0 0 1-2.2 1.34c-1.2 0-2.8-1.05-2.8-3.63V19.69a3.36 3.36 0 0 1 3.16-3.64c1.72 0 3 1.5 3 3.64v3.7h-1.72v-4.08A1.24 1.24 0 0 0 35.19 18 1.22 1.22 0 0 0 34 19.31v15.24c0 .89.38 1.47 1.24 1.47s1.24-.57 1.24-1.47v-5.64h-1.16v-1.73h3v10.37zM40.37 37.55V16.31h1.94v21.24h-1.94zM47.51 21.51l-1 9.85h1.75l-.77-9.85zm1.24 16l-.32-4.3h-2.1l-.45 4.3h-1.75l2.39-21.24h2l2.23 21.24zM7.69 45.11a3.11 3.11 0 0 0-3.26-3 2.94 2.94 0 0 0-3.07 3 3 3 0 0 0 3.07 3 3.13 3.13 0 0 0 3.26-3zm-7 6.59a.61.61 0 0 1-.34-.55.63.63 0 0 1 .6-.58.54.54 0 0 1 .29.09 5.61 5.61 0 0 0 3.14 1 2.92 2.92 0 0 0 3.23-3.16v-1a4.21 4.21 0 0 1-3.48 1.87A4.1 4.1 0 0 1 0 45.13a4.12 4.12 0 0 1 4.17-4.19 4.16 4.16 0 0 1 3.47 1.79v-1a.66.66 0 0 1 .65-.73.67.67 0 0 1 .67.67v6.75a4.28 4.28 0 0 1-1.13 3.14 4.67 4.67 0 0 1-3.38 1.19 7 7 0 0 1-3.71-1zM11.77 41.68a.67.67 0 0 1 .65-.67.66.66 0 0 1 .67.67v1.67A3.68 3.68 0 0 1 16.14 41a.64.64 0 0 1 .65.67.66.66 0 0 1-.58.67c-1.72.21-3.13 1.49-3.13 4.05v3a.66.66 0 1 1-1.32 0v-7.71zM25.48 45.58a3.36 3.36 0 0 0-3.3-3.47 3.28 3.28 0 0 0-3.24 3.43A3.33 3.33 0 0 0 22.21 49a3.28 3.28 0 0 0 3.26-3.42zm-7.9 0a4.63 4.63 0 0 1 9.25 0 4.61 4.61 0 0 1-4.65 4.64 4.55 4.55 0 0 1-4.6-4.6zM30.82 49.51L28.13 42a1.24 1.24 0 0 1-.09-.36.65.65 0 0 1 .67-.64.69.69 0 0 1 .67.55l2.23 6.66 2.25-6.68a.68.68 0 0 1 .65-.53h.07a.7.7 0 0 1 .69.53l2.23 6.68 2.27-6.7a.65.65 0 0 1 .63-.51.64.64 0 0 1 .65.62A1.23 1.23 0 0 1 41 42l-2.71 7.52a.78.78 0 0 1-.72.6h-.05a.74.74 0 0 1-.72-.6L34.55 43l-2.23 6.47a.74.74 0 0 1-.72.6.79.79 0 0 1-.74-.6zM43 41.68a.67.67 0 0 1 .65-.67.66.66 0 0 1 .67.67v1a3.36 3.36 0 0 1 3-1.73 3.24 3.24 0 0 1 3.4 3.55v4.93a.66.66 0 1 1-1.32 0v-4.6a2.37 2.37 0 0 0-2.4-2.72 2.61 2.61 0 0 0-2.66 2.78v4.5a.65.65 0 0 1-.65.67.66.66 0 0 1-.67-.67v-7.71zM40.92 3.78a7.62 7.62 0 0 0 .36 9.39 50.2 50.2 0 0 1 1.49-5.49 13.33 13.33 0 0 1 4.08-6s-3.43 3.37-4.11 12.56c5.68 1 7.06-3.52 6.13-7.9C48.32 3.73 51 0 51 0s-7-.51-10 3.76z" class="cls-1"/>
        <path d="M33.74 5.31a10.38 10.38 0 0 1 4.39 3.55l.18.25a8 8 0 0 1 .36-3.55C35.44 3 30.3 5 30.3 5s2.8 2.18 3 4.28c.29 3.48 2.32 6.54 6.35 4.53-2.57-6.71-5.88-8.46-5.88-8.46z" class="cls-1"/>
    </symbol>
</svg>